<svg width="32" height="32" viewBox="0 0 32 32" fill="none" xmlns="http://www.w3.org/2000/svg">
  <defs>
    <linearGradient id="g" x1="6" y1="6" x2="26" y2="26" gradientUnits="userSpaceOnUse">
      <stop stop-color="#6366F1"/>
      <stop offset="0.55" stop-color="#22D3EE"/>
      <stop offset="1" stop-color="#8B5CF6"/>
    </linearGradient>
  </defs>
  <path d="M8 4.75h10.2c.7 0 1.4.28 1.9.78l6.37 6.37c.5.5.78 1.18.78 1.9V24c0 1.8-1.45 3.25-3.25 3.25H8c-1.8 0-3.25-1.45-3.25-3.25V8c0-1.8 1.45-3.25 3.25-3.25Z" fill="url(#g)"/>
  <circle cx="12" cy="11" r="1.6" fill="white" fill-opacity="0.95"/>
  <path d="M13.9 10.2l7.2 7.2" stroke="white" stroke-opacity="0.28" stroke-width="1.3" stroke-linecap="round"/>
  <rect x="12" y="18.8" width="1.4" height="6.2" rx="0.7" fill="white" fill-opacity="0.92"/>
  <rect x="14.4" y="18.8" width="2.0" height="6.2" rx="1.0" fill="white" fill-opacity="0.92"/>
  <rect x="17.3" y="18.8" width="1.1" height="6.2" rx="0.55" fill="white" fill-opacity="0.92"/>
  <rect x="19.2" y="18.8" width="1.8" height="6.2" rx="0.9" fill="white" fill-opacity="0.92"/>
  <rect x="21.8" y="18.8" width="1.2" height="6.2" rx="0.6" fill="white" fill-opacity="0.92"/>
</svg>
