<svg width="231" height="48" viewBox="0 0 231 48" fill="none" xmlns="http://www.w3.org/2000/svg">
  <defs>
    <linearGradient id="g" x1="12" y1="10" x2="38" y2="38" gradientUnits="userSpaceOnUse">
      <stop stop-color="#6366F1"/>
      <stop offset="0.55" stop-color="#22D3EE"/>
      <stop offset="1" stop-color="#8B5CF6"/>
    </linearGradient>
  </defs>

  <!-- Icon -->
  <path d="M10.5 8.5h14.2c.9 0 1.8.36 2.4 1.0l8.0 8.0c.64.64 1.0 1.5 1.0 2.4v14.1c0 2.21-1.79 4.0-4.0 4.0H10.5c-2.21 0-4.0-1.79-4.0-4.0V12.5c0-2.21 1.79-4.0 4.0-4.0Z" fill="url(#g)"/>
  <circle cx="14.5" cy="14.2" r="2.1" fill="white" fill-opacity="0.95"/>
  <path d="M16.9 13.2l9.0 9.0" stroke="white" stroke-opacity="0.25" stroke-width="1.6" stroke-linecap="round"/>
  <rect x="14.3" y="26.3" width="1.8" height="12.0" rx="0.9" fill="white" fill-opacity="0.92"/>
  <rect x="17.2" y="26.3" width="2.6" height="12.0" rx="1.3" fill="white" fill-opacity="0.92"/>
  <rect x="20.9" y="26.3" width="1.5" height="12.0" rx="0.75" fill="white" fill-opacity="0.92"/>
  <rect x="23.3" y="26.3" width="2.4" height="12.0" rx="1.2" fill="white" fill-opacity="0.92"/>

  <!-- Wordmark -->
  <text x="52" y="30" font-size="22" font-weight="800" font-family="ui-sans-serif, system-ui, -apple-system, Segoe UI, Roboto, Helvetica, Arial" fill="white">
    Label<tspan fill="#A5F3FC">.land</tspan>
  </text>
</svg>
